<?xml version="1.0" standalone="no"?><!DOCTYPE svg PUBLIC "-//W3C//DTD SVG 1.1//EN" "http://www.w3.org/Graphics/SVG/1.1/DTD/svg11.dtd"><svg t="1562634251192" class="icon" viewBox="0 0 1024 1024" version="1.1" xmlns="http://www.w3.org/2000/svg" p-id="11845" width="16" height="16" xmlns:xlink="http://www.w3.org/1999/xlink"><defs><style type="text/css"></style></defs><path d="M1.114 511.774c0-56.444 45.767-102.177 102.177-102.177 56.444 0 102.175 45.733 102.175 102.176 0 56.444-45.731 102.178-102.175 102.178C46.881 613.951 1.114 568.218 1.114 511.774zM409.822 511.774c0-56.444 45.767-102.177 102.178-102.176 56.443 0 102.177 45.733 102.177 102.175 0 56.444-45.733 102.178-102.177 102.178C455.589 613.951 409.822 568.218 409.822 511.774zM818.532 511.774c0-56.444 45.767-102.176 102.177-102.176 56.443 0 102.177 45.733 102.177 102.175 0 56.444-45.733 102.178-102.177 102.178C864.299 613.951 818.532 568.218 818.532 511.774z" p-id="11846"></path></svg>