<?xml version="1.0" standalone="no"?><!DOCTYPE svg PUBLIC "-//W3C//DTD SVG 1.1//EN" "http://www.w3.org/Graphics/SVG/1.1/DTD/svg11.dtd"><svg t="1563180405638" class="icon" viewBox="0 0 1024 1024" version="1.1" xmlns="http://www.w3.org/2000/svg" p-id="2329" width="32" height="32" xmlns:xlink="http://www.w3.org/1999/xlink"><defs><style type="text/css"></style></defs><path d="M528.982357 789.137615m-28.183486 0a28.183486 28.183486 0 1 0 56.366972 0 28.183486 28.183486 0 1 0-56.366972 0Z" fill="#99FFFF" p-id="2330"></path><path d="M672.067749 847.672548H385.896965c-28.90614 0-52.753705-23.847565-52.753705-52.753705V301.346507c0-28.90614 23.847565-52.753705 52.753705-52.753705H672.067749c28.90614 0 52.753705 23.847565 52.753705 52.753705V794.918843c0 28.90614-23.847565 52.753705-52.753705 52.753705zM385.896965 266.659139c-18.788991 0-33.964714 15.175723-33.964714 33.964714V794.918843c0 18.788991 15.175723 33.964714 33.964714 33.964714H672.067749c18.788991 0 33.964714-15.175723 33.964714-33.964714V301.346507c0-18.788991-15.175723-33.964714-33.964714-33.964714H385.896965z" fill="#0077F9" p-id="2331"></path><path d="M715.426958 743.610445H342.537756c-5.058574 0-9.394495-4.335921-9.394496-9.394496s4.335921-9.394495 9.394496-9.394495H715.426958c5.058574 0 9.394495 4.335921 9.394496 9.394495s-4.335921 9.394495-9.394496 9.394496zM708.200423 341.092449H346.151023c-5.781228 0-10.839802-5.058574-10.839802-10.839803s5.058574-10.839802 10.839802-10.839802H708.200423c5.781228 0 10.839802 5.058574 10.839803 10.839802s-4.335921 10.839802-10.839803 10.839803z" fill="#0077F9" p-id="2332"></path></svg>