<?xml version="1.0" standalone="no"?><!DOCTYPE svg PUBLIC "-//W3C//DTD SVG 1.1//EN" "http://www.w3.org/Graphics/SVG/1.1/DTD/svg11.dtd"><svg t="1563190406628" class="icon" viewBox="0 0 1024 1024" version="1.1" xmlns="http://www.w3.org/2000/svg" p-id="2165" width="16" height="16" xmlns:xlink="http://www.w3.org/1999/xlink"><defs><style type="text/css"></style></defs><path d="M785.708 494.297c0.373 5.856 0.584 11.756 0.584 17.706 0 151.479-122.81 274.282-274.293 274.282-151.486 0-274.286-122.803-274.286-274.282 0-151.486 122.799-274.286 274.286-274.286 75.741 0 144.315 30.7 193.953 80.336l38.786-38.788C685.176 219.702 602.89 182.861 512 182.861c-181.782 0-329.143 147.361-329.143 329.143S330.218 841.143 512 841.143c181.778 0 329.139-147.357 329.139-329.139 0-22.758-2.311-44.975-6.708-66.432L785.708 494.297z" p-id="2166" fill="#8a8a8a"></path><path d="M782.95 326.751c-66.351 66.343-203.3 203.296-270.41 270.408L370.308 454.923l-38.78 38.791 142.227 142.233-0.001 0.001 38.784 38.784 38.791-38.784-0.003-0.003c63.578-63.576 189.832-189.826 259.36-259.354 29.462-29.466 48.743-48.746 48.743-48.746l-38.791-38.788C820.637 289.057 806.089 303.605 782.95 326.751z" p-id="2167" fill="#8a8a8a"></path></svg>